<svg xmlns="http://www.w3.org/2000/svg" viewBox="0 0 48 48" fill="none" stroke="#C8A96E" stroke-width="1.5" stroke-linecap="round" stroke-linejoin="round" aria-hidden="true">

  <path d="M24 38V24"/>
  <path d="M24 24c0-5.5 3.5-9 8.5-10.5"/>
  <path d="M24 28c-3.2 0-6 2.5-7 6"/>
  <path d="M24 20c-2.2-3.8-6.2-5.8-10-6.5"/>
  <path d="M32.5 13.5c1.3.8 1.7 2.5.9 3.8-.8 1.3-2.5 1.7-3.8.9"/>
  <path d="M17 34.2c1.4-.5 2.9.2 3.4 1.6.5 1.4-.2 2.9-1.6 3.4"/>
  <path d="M14 13.5c1.5 0 2.7 1.2 2.7 2.7S15.5 19 14 19"/>

</svg>
